<svg width="547" height="534" viewBox="0 0 547 534" fill="none" xmlns="http://www.w3.org/2000/svg">
<path d="M182.958 429.44C182.958 431.645 180.422 433.41 177.224 433.41C173.584 433.741 171.048 431.976 171.048 429.44C171.048 427.234 173.584 425.469 176.783 425.469C180.091 425.139 182.958 426.903 182.958 429.44ZM148.661 424.477C147.889 426.683 150.094 429.219 153.403 429.881C156.27 430.984 159.579 429.881 160.24 427.675C160.902 425.469 158.807 422.933 155.498 421.94C152.631 421.168 149.433 422.271 148.661 424.477ZM197.405 422.602C194.207 423.374 192.002 425.47 192.332 428.006C192.663 430.212 195.531 431.645 198.839 430.873C202.037 430.101 204.243 428.006 203.912 425.8C203.581 423.705 200.604 422.271 197.405 422.602ZM269.971 0C117.01 0 0 116.127 0 269.089C0 391.392 76.9771 496.05 186.929 532.885C201.045 535.421 206.007 526.709 206.007 519.54C206.007 512.703 205.677 474.986 205.677 451.827C205.677 451.827 128.479 468.369 112.267 418.963C112.267 418.963 99.6953 386.871 81.609 378.599C81.609 378.599 56.3543 361.285 83.3735 361.616C83.3735 361.616 110.834 363.822 125.942 390.069C150.094 432.638 190.568 420.397 206.338 413.118C208.875 395.473 216.043 383.231 223.984 375.953C162.336 369.115 100.136 360.182 100.136 254.091C100.136 223.763 108.518 208.544 126.163 189.134C123.296 181.966 113.922 152.41 129.03 114.253C152.079 107.084 205.125 144.029 205.125 144.029C227.182 137.853 250.892 134.655 274.383 134.655C297.873 134.655 321.583 137.853 343.64 144.029C343.64 144.029 396.686 106.974 419.735 114.253C434.843 152.521 425.469 181.966 422.602 189.134C440.247 208.654 451.055 223.873 451.055 254.091C451.055 360.513 386.099 369.005 324.451 375.953C334.597 384.665 343.199 401.207 343.199 427.124C343.199 464.289 342.868 510.277 342.868 519.32C342.868 526.488 347.941 535.2 361.947 532.664C472.229 496.05 547.001 391.392 547.001 269.089C547.001 116.127 422.933 0 269.971 0ZM107.194 380.364C105.761 381.467 106.092 384.003 107.966 386.099C109.731 387.863 112.267 388.635 113.701 387.201C115.135 386.099 114.804 383.562 112.929 381.467C111.165 379.702 108.628 378.93 107.194 380.364ZM95.284 371.431C94.512 372.865 95.6148 374.629 97.8205 375.732C99.585 376.835 101.791 376.504 102.563 374.96C103.335 373.526 102.232 371.762 100.026 370.659C97.8205 369.997 96.056 370.328 95.284 371.431ZM131.015 410.692C129.251 412.125 129.913 415.434 132.449 417.529C134.986 420.066 138.184 420.396 139.617 418.632C141.051 417.198 140.389 413.89 138.184 411.794C135.758 409.258 132.449 408.927 131.015 410.692ZM118.443 394.48C116.679 395.583 116.679 398.45 118.443 400.987C120.208 403.523 123.185 404.626 124.619 403.523C126.384 402.09 126.384 399.222 124.619 396.686C123.075 394.149 120.208 393.046 118.443 394.48Z" fill="#AAAAAA"/>
</svg>
