<svg width="254" height="254" viewBox="0 0 254 254" fill="none" xmlns="http://www.w3.org/2000/svg">
<path d="M48.8474 201.083C43.9755 201.083 39.908 199.452 36.6448 196.189C33.3816 192.925 31.75 188.858 31.75 183.986V70.014C31.75 65.1422 33.3816 61.0747 36.6448 57.8115C39.908 54.5483 43.9755 52.9167 48.8474 52.9167H205.153C210.024 52.9167 214.092 54.5483 217.355 57.8115C220.618 61.0747 222.25 65.1422 222.25 70.014V183.986C222.25 188.858 220.618 192.925 217.355 196.189C214.092 199.452 210.024 201.083 205.153 201.083H48.8474ZM127 128.222L42.3333 72.861V183.986C42.3333 185.886 42.9436 187.447 44.1642 188.669C45.3866 189.89 46.9477 190.5 48.8474 190.5H205.153C207.052 190.5 208.613 189.89 209.836 188.669C211.056 187.447 211.667 185.886 211.667 183.986V72.861L127 128.222ZM127 116.417L208.41 63.5H45.5904L127 116.417ZM42.3333 72.861V63.5V183.986C42.3333 185.886 42.9436 187.447 44.1642 188.669C45.3866 189.89 46.9477 190.5 48.8474 190.5H42.3333V72.861Z" fill="#AAAAAA"/>
</svg>
